<mxfile host="app.diagrams.net" modified="2023-12-05T19:29:52.568Z" agent="Mozilla/5.0 (Windows NT 10.0; Win64; x64) AppleWebKit/537.36 (KHTML, like Gecko) Chrome/119.0.0.0 Safari/537.36" etag="jwhNP6FQXFdbAeEjfSX3" version="22.1.5" type="github">
  <diagram name="Страница — 1" id="abeItS0DTZ43whYvkSR8">
    <mxGraphModel dx="830" dy="447" grid="1" gridSize="10" guides="1" tooltips="1" connect="1" arrows="1" fold="1" page="1" pageScale="1" pageWidth="827" pageHeight="1169" math="0" shadow="0">
      <root>
        <mxCell id="0" />
        <mxCell id="1" parent="0" />
        <mxCell id="w6v1x1wFfDmxcHy3iJqM-1" value="Збільшити ефективність продажів побутової техніки" style="rounded=1;whiteSpace=wrap;html=1;" vertex="1" parent="1">
          <mxGeometry x="320" y="160" width="160" height="60" as="geometry" />
        </mxCell>
        <mxCell id="w6v1x1wFfDmxcHy3iJqM-2" value="Полегшити процес замовлення товарів&amp;nbsp;" style="rounded=1;whiteSpace=wrap;html=1;" vertex="1" parent="1">
          <mxGeometry x="180" y="260" width="160" height="60" as="geometry" />
        </mxCell>
        <mxCell id="w6v1x1wFfDmxcHy3iJqM-3" value="Прискорити процес обробки замовлень" style="rounded=1;whiteSpace=wrap;html=1;" vertex="1" parent="1">
          <mxGeometry x="430" y="260" width="160" height="60" as="geometry" />
        </mxCell>
      </root>
    </mxGraphModel>
  </diagram>
</mxfile>
